# xmcd
#
# Track frame offsets:
#	150
#	14315
#	30596
#	43455
#	58202
#	77568
#	87188
#	101694
#	116934
#	133149
#	148588
#	165544
#	179533
#	193603
#	205124
#	220618
#	240929
#	253723
#	276383
#	294901
#
# Disc length: 4075 seconds
#
# Revision: 0
# Processed by: cddbd v1.5.2PL0 Copyright (c) Steve Scherf et al.
# Submitted via: EZCDAudioConverter 2.1.5.1
#
DISCID=270fe914
DTITLE=Various Artist - Sveriges Bästa Dansband Spelar Country (Vol 1 - Dansbandscoun
DTITLE=try)
DYEAR=2017
DGENRE=Swedish Top 40 Country/Dansband 70s, 80s, 90s, 00s, 10s
TTITLE0=Mats Rådberg and Rankarna - Early Morning Rain '81
TTITLE1=Lasse Stefanz - När Inte Himlen Är Så Blå
TTITLE2=Alf Robertsson - Lasse Och Mari
TTITLE3=Grönwalls - Varje Liten Ögonkast
TTITLE4=Hasse Andersson - Änglahund '93  (single)
TTITLE5=Wizex - Cowboy Yoddle Song '92
TTITLE6=Christina Lindberg - Country Road
TTITLE7=Streaplers - Finns Det Någon Annan
TTITLE8=Donnez - Allt Det Där Som Har Försvunnit
TTITLE9=Fernandoz - When You Smile
TTITLE10=Kindbergs - Främling
TTITLE11=Joyride - Godmorgon Världen
TTITLE12=Martin Nilsson - Green, Green Grass Of Home
TTITLE13=Inger Nordström and Rhinestone Band - When A Love Goes Wrong
TTITLE14=Mats Rådberg and Rankarna - Peta In En Pinne I Brasan (org)
TTITLE15=Alf Robertsson - Balladen Om Nisse Karlsson '81 (org)
TTITLE16=Lasse Stefanz and Monia Sjöström - Jackson
TTITLE17=Kikki Danielsson - Amazing Grace
TTITLE18=Vikingarna - Mississippi '76 (org)
TTITLE19=Hans Martin - Det Känns Så Fel
EXTD=
EXTT0=
EXTT1=
EXTT2=
EXTT3=
EXTT4=
EXTT5=
EXTT6=
EXTT7=
EXTT8=
EXTT9=
EXTT10=
EXTT11=
EXTT12=
EXTT13=
EXTT14=
EXTT15=
EXTT16=
EXTT17=
EXTT18=
EXTT19=
PLAYORDER=
